<mxfile host="app.diagrams.net" agent="Mozilla/5.0 (X11; Linux x86_64; rv:127.0) Gecko/20100101 Firefox/127.0" version="24.7.16">
  <diagram name="PÃ¡gina-1" id="ohDvWdzl1yFlUsbIFisF">
    <mxGraphModel dx="1434" dy="763" grid="1" gridSize="10" guides="1" tooltips="1" connect="1" arrows="1" fold="1" page="1" pageScale="1" pageWidth="827" pageHeight="1169" math="0" shadow="0">
      <root>
        <mxCell id="0" />
        <mxCell id="1" parent="0" />
        <mxCell id="tX6QxJewPDc8l_Dut3QN-4" style="rounded=0;orthogonalLoop=1;jettySize=auto;html=1;exitX=1;exitY=0.5;exitDx=0;exitDy=0;entryX=0;entryY=0.5;entryDx=0;entryDy=0;endArrow=none;endFill=0;" edge="1" parent="1" source="tX6QxJewPDc8l_Dut3QN-1" target="tX6QxJewPDc8l_Dut3QN-2">
          <mxGeometry relative="1" as="geometry" />
        </mxCell>
        <mxCell id="tX6QxJewPDc8l_Dut3QN-1" value="" style="rounded=0;whiteSpace=wrap;html=1;" vertex="1" parent="1">
          <mxGeometry x="85" y="340" width="120" height="60" as="geometry" />
        </mxCell>
        <mxCell id="tX6QxJewPDc8l_Dut3QN-5" style="rounded=0;orthogonalLoop=1;jettySize=auto;html=1;exitX=1;exitY=0.5;exitDx=0;exitDy=0;entryX=0;entryY=0.5;entryDx=0;entryDy=0;endArrow=none;endFill=0;" edge="1" parent="1" source="tX6QxJewPDc8l_Dut3QN-2" target="tX6QxJewPDc8l_Dut3QN-3">
          <mxGeometry relative="1" as="geometry">
            <mxPoint x="515" y="370" as="targetPoint" />
          </mxGeometry>
        </mxCell>
        <mxCell id="tX6QxJewPDc8l_Dut3QN-2" value="" style="rhombus;whiteSpace=wrap;html=1;" vertex="1" parent="1">
          <mxGeometry x="285" y="330" width="80" height="80" as="geometry" />
        </mxCell>
        <mxCell id="tX6QxJewPDc8l_Dut3QN-3" value="" style="rounded=0;whiteSpace=wrap;html=1;" vertex="1" parent="1">
          <mxGeometry x="445" y="340" width="120" height="60" as="geometry" />
        </mxCell>
        <mxCell id="tX6QxJewPDc8l_Dut3QN-8" style="edgeStyle=orthogonalEdgeStyle;rounded=0;orthogonalLoop=1;jettySize=auto;html=1;exitX=0.5;exitY=1;exitDx=0;exitDy=0;entryX=0.5;entryY=1;entryDx=0;entryDy=0;endArrow=none;endFill=0;" edge="1" parent="1" source="tX6QxJewPDc8l_Dut3QN-6" target="tX6QxJewPDc8l_Dut3QN-7">
          <mxGeometry relative="1" as="geometry" />
        </mxCell>
        <mxCell id="tX6QxJewPDc8l_Dut3QN-6" value="" style="rounded=0;whiteSpace=wrap;html=1;" vertex="1" parent="1">
          <mxGeometry x="80" y="130" width="120" height="60" as="geometry" />
        </mxCell>
        <mxCell id="tX6QxJewPDc8l_Dut3QN-9" style="edgeStyle=orthogonalEdgeStyle;rounded=0;orthogonalLoop=1;jettySize=auto;html=1;exitX=0.5;exitY=0;exitDx=0;exitDy=0;entryX=0.5;entryY=0;entryDx=0;entryDy=0;endArrow=none;endFill=0;" edge="1" parent="1" source="tX6QxJewPDc8l_Dut3QN-7" target="tX6QxJewPDc8l_Dut3QN-6">
          <mxGeometry relative="1" as="geometry" />
        </mxCell>
        <mxCell id="tX6QxJewPDc8l_Dut3QN-7" value="" style="shape=rhombus;perimeter=rhombusPerimeter;whiteSpace=wrap;html=1;align=center;fontFamily=Helvetica;fontSize=11;fontColor=default;labelBackgroundColor=default;" vertex="1" parent="1">
          <mxGeometry x="310" y="120" width="80" height="80" as="geometry" />
        </mxCell>
        <mxCell id="tX6QxJewPDc8l_Dut3QN-15" style="rounded=0;orthogonalLoop=1;jettySize=auto;html=1;exitX=1;exitY=0.5;exitDx=0;exitDy=0;entryX=0;entryY=0.5;entryDx=0;entryDy=0;endArrow=none;endFill=0;" edge="1" source="tX6QxJewPDc8l_Dut3QN-16" target="tX6QxJewPDc8l_Dut3QN-18" parent="1">
          <mxGeometry relative="1" as="geometry" />
        </mxCell>
        <mxCell id="tX6QxJewPDc8l_Dut3QN-16" value="" style="rounded=0;whiteSpace=wrap;html=1;" vertex="1" parent="1">
          <mxGeometry x="75" y="540" width="120" height="60" as="geometry" />
        </mxCell>
        <mxCell id="tX6QxJewPDc8l_Dut3QN-17" style="rounded=0;orthogonalLoop=1;jettySize=auto;html=1;exitX=1;exitY=0.5;exitDx=0;exitDy=0;entryX=0;entryY=0.5;entryDx=0;entryDy=0;endArrow=none;endFill=0;" edge="1" source="tX6QxJewPDc8l_Dut3QN-18" parent="1" target="tX6QxJewPDc8l_Dut3QN-19">
          <mxGeometry relative="1" as="geometry">
            <mxPoint x="505" y="570" as="targetPoint" />
          </mxGeometry>
        </mxCell>
        <mxCell id="tX6QxJewPDc8l_Dut3QN-21" style="rounded=0;orthogonalLoop=1;jettySize=auto;html=1;exitX=0.5;exitY=1;exitDx=0;exitDy=0;entryX=0.5;entryY=0;entryDx=0;entryDy=0;endArrow=none;endFill=0;" edge="1" parent="1" source="tX6QxJewPDc8l_Dut3QN-18" target="tX6QxJewPDc8l_Dut3QN-20">
          <mxGeometry relative="1" as="geometry" />
        </mxCell>
        <mxCell id="tX6QxJewPDc8l_Dut3QN-18" value="" style="rhombus;whiteSpace=wrap;html=1;" vertex="1" parent="1">
          <mxGeometry x="275" y="530" width="80" height="80" as="geometry" />
        </mxCell>
        <mxCell id="tX6QxJewPDc8l_Dut3QN-19" value="" style="rounded=0;whiteSpace=wrap;html=1;" vertex="1" parent="1">
          <mxGeometry x="435" y="540" width="120" height="60" as="geometry" />
        </mxCell>
        <mxCell id="tX6QxJewPDc8l_Dut3QN-20" value="" style="rounded=0;whiteSpace=wrap;html=1;" vertex="1" parent="1">
          <mxGeometry x="255" y="658" width="120" height="60" as="geometry" />
        </mxCell>
        <mxCell id="tX6QxJewPDc8l_Dut3QN-22" value="&lt;b&gt;&lt;font style=&quot;font-size: 17px;&quot;&gt;Relacion unaria&lt;/font&gt;&lt;/b&gt;" style="text;html=1;align=center;verticalAlign=middle;resizable=0;points=[];autosize=1;strokeColor=none;fillColor=none;" vertex="1" parent="1">
          <mxGeometry x="40" y="40" width="150" height="30" as="geometry" />
        </mxCell>
        <mxCell id="tX6QxJewPDc8l_Dut3QN-23" value="&lt;b&gt;&lt;font style=&quot;font-size: 17px;&quot;&gt;Relacion binaria&lt;/font&gt;&lt;/b&gt;" style="text;html=1;align=center;verticalAlign=middle;resizable=0;points=[];autosize=1;strokeColor=none;fillColor=none;" vertex="1" parent="1">
          <mxGeometry x="40" y="278" width="150" height="30" as="geometry" />
        </mxCell>
        <mxCell id="tX6QxJewPDc8l_Dut3QN-24" value="&lt;b&gt;&lt;font style=&quot;font-size: 17px;&quot;&gt;Relacion terciaria&lt;/font&gt;&lt;/b&gt;" style="text;html=1;align=center;verticalAlign=middle;resizable=0;points=[];autosize=1;strokeColor=none;fillColor=none;" vertex="1" parent="1">
          <mxGeometry x="40" y="490" width="170" height="30" as="geometry" />
        </mxCell>
        <mxCell id="tX6QxJewPDc8l_Dut3QN-29" style="rounded=0;orthogonalLoop=1;jettySize=auto;html=1;exitX=0.5;exitY=1;exitDx=0;exitDy=0;endArrow=none;endFill=0;" edge="1" parent="1" source="tX6QxJewPDc8l_Dut3QN-25" target="tX6QxJewPDc8l_Dut3QN-28">
          <mxGeometry relative="1" as="geometry" />
        </mxCell>
        <mxCell id="tX6QxJewPDc8l_Dut3QN-25" value="" style="rounded=0;whiteSpace=wrap;html=1;" vertex="1" parent="1">
          <mxGeometry x="255" y="830" width="120" height="60" as="geometry" />
        </mxCell>
        <mxCell id="tX6QxJewPDc8l_Dut3QN-26" value="Subtipo" style="rounded=0;whiteSpace=wrap;html=1;" vertex="1" parent="1">
          <mxGeometry x="415" y="1018" width="120" height="60" as="geometry" />
        </mxCell>
        <mxCell id="tX6QxJewPDc8l_Dut3QN-27" value="Sutipo" style="rounded=0;whiteSpace=wrap;html=1;" vertex="1" parent="1">
          <mxGeometry x="95" y="1018" width="120" height="60" as="geometry" />
        </mxCell>
        <mxCell id="tX6QxJewPDc8l_Dut3QN-30" style="rounded=0;orthogonalLoop=1;jettySize=auto;html=1;exitX=0.5;exitY=0;exitDx=0;exitDy=0;entryX=0;entryY=0.5;entryDx=0;entryDy=0;endArrow=none;endFill=0;" edge="1" parent="1" source="tX6QxJewPDc8l_Dut3QN-28" target="tX6QxJewPDc8l_Dut3QN-26">
          <mxGeometry relative="1" as="geometry" />
        </mxCell>
        <mxCell id="tX6QxJewPDc8l_Dut3QN-31" style="rounded=0;orthogonalLoop=1;jettySize=auto;html=1;exitX=0.5;exitY=1;exitDx=0;exitDy=0;entryX=1;entryY=0.5;entryDx=0;entryDy=0;endArrow=none;endFill=0;" edge="1" parent="1" source="tX6QxJewPDc8l_Dut3QN-28" target="tX6QxJewPDc8l_Dut3QN-27">
          <mxGeometry relative="1" as="geometry" />
        </mxCell>
        <mxCell id="tX6QxJewPDc8l_Dut3QN-28" value="" style="triangle;whiteSpace=wrap;html=1;rotation=90;" vertex="1" parent="1">
          <mxGeometry x="285" y="958" width="60" height="80" as="geometry" />
        </mxCell>
        <mxCell id="tX6QxJewPDc8l_Dut3QN-32" value="Super tipo" style="text;html=1;align=center;verticalAlign=middle;resizable=0;points=[];autosize=1;strokeColor=none;fillColor=none;" vertex="1" parent="1">
          <mxGeometry x="275" y="845" width="80" height="30" as="geometry" />
        </mxCell>
        <mxCell id="tX6QxJewPDc8l_Dut3QN-33" value="Clave Primaria" style="ellipse;whiteSpace=wrap;html=1;align=center;fontStyle=4;" vertex="1" parent="1">
          <mxGeometry x="650" y="80" width="100" height="40" as="geometry" />
        </mxCell>
        <mxCell id="tX6QxJewPDc8l_Dut3QN-42" style="rounded=0;orthogonalLoop=1;jettySize=auto;html=1;exitX=1;exitY=0.5;exitDx=0;exitDy=0;entryX=0;entryY=0.5;entryDx=0;entryDy=0;endArrow=none;endFill=0;" edge="1" parent="1" source="tX6QxJewPDc8l_Dut3QN-43" target="tX6QxJewPDc8l_Dut3QN-45">
          <mxGeometry relative="1" as="geometry" />
        </mxCell>
        <mxCell id="tX6QxJewPDc8l_Dut3QN-43" value="" style="rounded=0;whiteSpace=wrap;html=1;" vertex="1" parent="1">
          <mxGeometry x="940" y="110" width="120" height="60" as="geometry" />
        </mxCell>
        <mxCell id="tX6QxJewPDc8l_Dut3QN-44" style="rounded=0;orthogonalLoop=1;jettySize=auto;html=1;exitX=1;exitY=0.5;exitDx=0;exitDy=0;entryX=0;entryY=0.5;entryDx=0;entryDy=0;endArrow=none;endFill=0;" edge="1" parent="1" source="tX6QxJewPDc8l_Dut3QN-45" target="tX6QxJewPDc8l_Dut3QN-46">
          <mxGeometry relative="1" as="geometry">
            <mxPoint x="1370" y="140" as="targetPoint" />
          </mxGeometry>
        </mxCell>
        <mxCell id="tX6QxJewPDc8l_Dut3QN-45" value="" style="rhombus;whiteSpace=wrap;html=1;" vertex="1" parent="1">
          <mxGeometry x="1180" y="100" width="80" height="80" as="geometry" />
        </mxCell>
        <mxCell id="tX6QxJewPDc8l_Dut3QN-46" value="" style="rounded=0;whiteSpace=wrap;html=1;" vertex="1" parent="1">
          <mxGeometry x="1380" y="110" width="120" height="60" as="geometry" />
        </mxCell>
        <mxCell id="tX6QxJewPDc8l_Dut3QN-47" value="" style="rounded=0;whiteSpace=wrap;html=1;fillColor=none;" vertex="1" parent="1">
          <mxGeometry x="919" y="90" width="601" height="100" as="geometry" />
        </mxCell>
        <mxCell id="tX6QxJewPDc8l_Dut3QN-48" value="Composicion | Agregacion" style="text;html=1;align=center;verticalAlign=middle;resizable=0;points=[];autosize=1;strokeColor=none;fillColor=none;" vertex="1" parent="1">
          <mxGeometry x="880" y="58" width="160" height="30" as="geometry" />
        </mxCell>
        <mxCell id="tX6QxJewPDc8l_Dut3QN-49" value="" style="rhombus;whiteSpace=wrap;html=1;" vertex="1" parent="1">
          <mxGeometry x="1180" y="278" width="80" height="80" as="geometry" />
        </mxCell>
        <mxCell id="tX6QxJewPDc8l_Dut3QN-50" style="rounded=0;orthogonalLoop=1;jettySize=auto;html=1;exitX=0.5;exitY=1;exitDx=0;exitDy=0;endArrow=none;endFill=0;entryX=0.5;entryY=0;entryDx=0;entryDy=0;" edge="1" parent="1" source="tX6QxJewPDc8l_Dut3QN-47" target="tX6QxJewPDc8l_Dut3QN-49">
          <mxGeometry relative="1" as="geometry">
            <mxPoint x="1240" y="270" as="targetPoint" />
          </mxGeometry>
        </mxCell>
        <mxCell id="tX6QxJewPDc8l_Dut3QN-52" value="&lt;b&gt;&lt;font style=&quot;font-size: 17px;&quot;&gt;Especializacion&lt;/font&gt;&lt;/b&gt;" style="text;html=1;align=center;verticalAlign=middle;resizable=0;points=[];autosize=1;strokeColor=none;fillColor=none;fontFamily=Helvetica;fontSize=11;fontColor=default;labelBackgroundColor=default;" vertex="1" parent="1">
          <mxGeometry x="40" y="800" width="150" height="30" as="geometry" />
        </mxCell>
        <mxCell id="tX6QxJewPDc8l_Dut3QN-53" value="&lt;div style=&quot;font-size: 14px;&quot;&gt;&lt;font style=&quot;font-size: 14px;&quot;&gt;Parcial (disjunta)&lt;/font&gt;&lt;/div&gt;&lt;div style=&quot;font-size: 14px;&quot;&gt;&lt;font style=&quot;font-size: 14px;&quot;&gt;&lt;font style=&quot;font-size: 14px;&quot;&gt;Parcial (solapada)&lt;/font&gt;&lt;font style=&quot;font-size: 14px;&quot;&gt;&lt;br&gt;&lt;/font&gt;&lt;/font&gt;&lt;/div&gt;" style="text;html=1;align=center;verticalAlign=middle;resizable=0;points=[];autosize=1;strokeColor=none;fillColor=none;fontFamily=Helvetica;fontSize=11;fontColor=default;labelBackgroundColor=default;" vertex="1" parent="1">
          <mxGeometry x="320" y="908" width="140" height="50" as="geometry" />
        </mxCell>
        <mxCell id="tX6QxJewPDc8l_Dut3QN-55" value="Atributo" style="ellipse;whiteSpace=wrap;html=1;align=center;fontFamily=Helvetica;fontSize=11;fontColor=default;labelBackgroundColor=default;" vertex="1" parent="1">
          <mxGeometry x="650" y="140" width="100" height="40" as="geometry" />
        </mxCell>
        <mxCell id="tX6QxJewPDc8l_Dut3QN-56" value="Relationship" style="shape=rhombus;perimeter=rhombusPerimeter;whiteSpace=wrap;html=1;align=center;fontFamily=Helvetica;fontSize=11;fontColor=default;labelBackgroundColor=default;" vertex="1" parent="1">
          <mxGeometry x="640" y="190" width="120" height="60" as="geometry" />
        </mxCell>
        <mxCell id="tX6QxJewPDc8l_Dut3QN-57" value="(1,N) = Cardinalidades" style="text;html=1;align=center;verticalAlign=middle;resizable=0;points=[];autosize=1;strokeColor=none;fillColor=none;fontFamily=Helvetica;fontSize=11;fontColor=default;labelBackgroundColor=default;" vertex="1" parent="1">
          <mxGeometry x="640" y="358" width="130" height="30" as="geometry" />
        </mxCell>
        <mxCell id="tX6QxJewPDc8l_Dut3QN-58" value="Entidad debil" style="shape=ext;margin=3;double=1;whiteSpace=wrap;html=1;align=center;fontFamily=Helvetica;fontSize=11;fontColor=default;labelBackgroundColor=default;" vertex="1" parent="1">
          <mxGeometry x="640" y="280" width="100" height="40" as="geometry" />
        </mxCell>
      </root>
    </mxGraphModel>
  </diagram>
</mxfile>
